<?xml version="1.0" encoding="UTF-8"?>
<svg width="24px" height="24px" viewBox="0 0 24 24" version="1.1" xmlns="http://www.w3.org/2000/svg" xmlns:xlink="http://www.w3.org/1999/xlink">
    <title>offline</title>
    <defs>
        <filter id="filter-1">
            <feColorMatrix in="SourceGraphic" type="matrix" values="0 0 0 0 1.000000 0 0 0 0 1.000000 0 0 0 0 1.000000 0 0 0 1.000000 0"></feColorMatrix>
        </filter>
    </defs>
    <g id="Styleguide" stroke="none" stroke-width="1" fill="none" fill-rule="evenodd">
        <g id="offline" transform="translate(-16.000000, -193.000000)" filter="url(#filter-1)">
            <g transform="translate(28.000000, 205.000000) rotate(90.000000) translate(-28.000000, -205.000000) translate(16.000000, 193.000000)">
                <path d="M17.329,23.9698147 L12,22.0318297 L6.671,23.9698147 C6.518,24.0258143 6.346,24.0028145 6.213,23.9098152 C6.08,23.8158159 6,23.6628171 6,23.4998184 L6,22.0538295 C6,21.5338335 6.264,21.0578372 6.705,20.7818394 L10,18.7228553 L10,12.2389054 L0.686,15.9648766 C0.358,16.0938756 0,15.8538775 0,15.4998802 L0,14.5418876 C0,13.7268939 0.398,12.9608998 1.066,12.4939034 L10,6.23995177 L10,1.99998454 C10,0.896993066 10.897,0 12,0 C13.103,0 14,0.896993066 14,1.99998454 L14,6.23995177 L22.934,12.4929034 C23.602,12.9608998 24,13.7268939 24,14.5418876 L24,15.4998802 C24,15.8548774 23.639,16.0958756 23.314,15.9638766 L14,12.2379054 L14,18.7218553 L17.295,20.7818394 C17.736,21.0588372 18,21.5338335 18,22.0538295 L18,23.4998184 C18,23.6628171 17.92,23.8158159 17.787,23.9098152 C17.653,24.0028145 17.481,24.0258143 17.329,23.9698147 L17.329,23.9698147 Z" id="Path" fill="#000000" fill-rule="nonzero"></path>
            </g>
        </g>
    </g>
</svg>