<svg xmlns="http://www.w3.org/2000/svg" viewBox="0 0 16 16"><g fill="#C8C8C8" fill-rule="nonzero"><path d="M15.73 3.3L11.87.14a.54.54 0 00-.6-.07c-.2.1-.31.3-.31.53v1.13H.56A.58.58 0 000 2.3v2.93c0 .32.25.58.56.58h10.4v1.13c0 .23.12.43.31.53.2.1.43.07.6-.07l3.86-3.18a.6.6 0 00.22-.46.6.6 0 00-.22-.45zM1.97 4.94h-.85a.29.29 0 01-.28-.29v-.88c0-.16.13-.29.28-.29.16 0 .28.13.28.3v.58h.57c.15 0 .28.13.28.3 0 .15-.13.28-.28.28zM15.39 10.19H4.99V9.06a.59.59 0 00-.31-.53.54.54 0 00-.6.07L.21 11.78a.6.6 0 00-.21.46c0 .17.08.34.21.45l3.87 3.18c.17.14.4.17.6.07.19-.1.31-.3.31-.53v-1.13h10.4c.3 0 .56-.26.56-.58v-2.93a.58.58 0 00-.56-.58zm-.28 2.92c0 .16-.13.3-.28.3h-.85a.29.29 0 01-.28-.3c0-.16.13-.29.28-.29h.56v-.58c0-.17.13-.3.29-.3.15 0 .28.13.28.3v.87z"/></g></svg>